<svg version="1.2" xmlns="http://www.w3.org/2000/svg" viewBox="0 0 271 264" width="271" height="264">
	<style>
		.s0 { fill: #8d2121 } 
	</style>
	<g>
		<path fill-rule="evenodd" class="s0" d="m141.5 3.5q47.53-2.25 85 26.5 31.37 0.93 44 29.5-0.5 0.5-1 1-50.8-14.31-84.5 26-29 44 0 88 15.77 20.25 40.5 27.5-15.11 26.11-40.5 42.5-57.37-34.95-59.5-102.5 1.03-22.17 9-43-0.17-2.58-1.5-0.5-38.33 77.84 14 147 5.52 5.27 10.5 11-11.06 4.36-23 5.5-19.74 1.74-39-2.5-38-69.01-11.5-143 9.81-26.13 28-47 1-1 0-2-63.11 64.83-50 155 3.03 14.12 6 28-29.71-15.71-48-44-12.35-45.06 11-86 4.17-6.68 9.5-12.5-14.13 9.15-22.5 24.5-8.79 17.11-12.5 36-6.08-26.51 0.5-53 7.77-23.56 28.5-37-5.96-1.04-12-0.5 14.73-21.38 40-28-4.42-1.46-9-2.5 29.38-21.21 66-22.5-10.4-6.98-23-8 21.49-10.74 45-13.5zm66 35q4.11-1.84 7-5.5-9.05-2.16-18-4.5 3.57 7.07 11 10z"/>
	</g>
</svg>