<svg version="1.2" xmlns="http://www.w3.org/2000/svg" viewBox="0 0 283 268" width="283" height="268">
	<style>
		.s0 { fill: #b7262c } 
		.s1 { fill: #7b2027 } 
		.s2 { fill: #832328 } 
		.s3 { fill: #8f252a } 
		.s4 { fill: #6d1d21 } 
		.s5 { fill: #892129 } 
		.s6 { fill: #7a242c } 
		.s7 { fill: #a1282e } 
		.s8 { fill: #7e2329 } 
		.s9 { fill: #7c2026 } 
		.s10 { fill: #8e2026 } 
		.s11 { fill: #731c23 } 
		.s12 { fill: #982629 } 
		.s13 { fill: #d12b30 } 
		.s14 { fill: #7c2027 } 
		.s15 { fill: #671c1e } 
		.s16 { fill: #802127 } 
		.s17 { fill: #c62b30 } 
		.s18 { fill: #851e24 } 
		.s19 { fill: #9f262c } 
		.s20 { fill: #872327 } 
		.s21 { fill: #742027 } 
		.s22 { fill: #772025 } 
		.s23 { fill: #d22b30 } 
		.s24 { fill: #7d1e26 } 
		.s25 { fill: #7a1f27 } 
		.s26 { fill: #8e2229 } 
		.s27 { fill: #902328 } 
		.s28 { fill: #bf2b31 } 
		.s29 { fill: #95262b } 
		.s30 { fill: #641b23 } 
		.s31 { fill: #9d242e } 
		.s32 { fill: #c5272f } 
		.s33 { fill: #b12023 } 
		.s34 { fill: #962226 } 
		.s35 { fill: #842125 } 
		.s36 { fill: #751e24 } 
		.s37 { fill: #6f1c22 } 
		.s38 { fill: #6e1b1f } 
		.s39 { fill: #832224 } 
		.s40 { fill: #ce2a2e } 
		.s41 { fill: #cd2d31 } 
		.s42 { fill: #962528 } 
		.s43 { fill: #902228 } 
		.s44 { fill: #712026 } 
		.s45 { fill: #912428 } 
		.s46 { fill: #c53036 } 
		.s47 { fill: #8e252f } 
		.s48 { fill: #8b1b21 } 
		.s49 { fill: #cf2e33 } 
		.s50 { fill: #c83235 } 
		.s51 { fill: #8e252c } 
		.s52 { fill: #98272d } 
		.s53 { fill: #6d1a1e } 
		.s54 { fill: #6c1b21 } 
		.s55 { fill: #a7222d } 
		.s56 { fill: #932427 } 
		.s57 { fill: #d52a30 } 
		.s58 { fill: #76181b } 
		.s59 { fill: #7c2025 } 
		.s60 { fill: #bf2e32 } 
		.s61 { fill: #892328 } 
		.s62 { fill: #782429 } 
		.s63 { fill: #701b21 } 
		.s64 { fill: #781e25 } 
		.s65 { fill: #862227 } 
		.s66 { fill: #7c2128 } 
		.s67 { fill: #b83033 } 
		.s68 { fill: #a3282a } 
		.s69 { fill: #a12c31 } 
		.s70 { fill: #89232a } 
		.s71 { fill: #801e22 } 
		.s72 { fill: #85252c } 
		.s73 { fill: #832327 } 
		.s74 { fill: #701e23 } 
		.s75 { fill: #ca3333 } 
		.s76 { fill: #731d24 } 
		.s77 { fill: #c42a29 } 
		.s78 { fill: #631e25 } 
		.s79 { fill: #000000 } 
	</style>
	<path class="s0" d="m225 28q0 0.98 0 2 0.83 0.37 1.69 0.75c2.31 1.25 2.31 1.25 4.57 3.29 3.24 2.31 4.94 2.45 8.87 2.52 9.3 0.48 18.61 2.14 25.87 8.44q0 0.98 0 2 0.99 0 2 0 0 0.98 0 2 0.99 0 2 0c5.05 6.1 10 13.96 10 22q-2.41-0.72-4.81-1.44-1.34-0.4-2.71-0.81-2.75-0.84-5.48-1.75c-13.22-0.97-26.63-1.18-39 4q-1.54 0.63-3.12 1.29c-13.36 6.1-26.7 17.19-32.88 30.71q-0.98 0-2 0-0.19 0.84-0.38 1.7c-0.89 3.29-2.26 6.34-3.58 9.47-5.49 15-5.78 35.2 0.96 49.83q0.68 1.55 1.39 3.15c2.9 6.18 6.26 11.61 10.61 16.85q0.72 0.92 1.46 1.87c2.56 3.15 5.06 5.64 8.42 7.94q1.53 1.08 3.12 2.19 0 0.98 0 2c1.08 0.4 1.08 0.4 2.19 0.82 2.79 1.17 5.23 2.54 7.81 4.12q1.23 0.75 2.5 1.52 1.23 0.76 2.5 1.54 2.5 1.5 5 3-1.19 2.16-2.37 4.31c-0.67 1.2-0.67 1.2-1.34 2.43-1.03 1.8-2.14 3.54-3.29 5.26q-0.99 0-2 0-0.4 0.87-0.81 1.77c-5.46 10.26-16.26 18-25.5 24.67q-0.88 0.63-1.78 1.29c-6.39 4.51-6.39 4.51-9.91 5.27-6.74-3.13-12.58-9.27-18.06-14.25q-0.84-0.76-1.7-1.54c-2.71-2.52-4.9-4.72-6.24-8.21q-0.99 0-2 0 0-0.98 0-2-0.99 0-2 0c-1.29-1.46-1.29-1.46-2.62-3.38q-0.67-0.93-1.36-1.89c-1.02-1.73-1.02-1.73-1.02-3.73q-0.99 0-2 0-0.99-2.96-2-6-0.99 0-2 0c-4.53-8.34-8.07-16.99-11-26q-0.32-0.98-0.65-1.98c-5.4-17.29-3.72-36.14-3.35-54.02q-0.96 3.56-1.92 7.11-0.27 0.99-0.55 2.01c-5.81 21.64-6.26 48.26 3.47 68.88q0.88 2.31 1.75 4.63c2.15 5.46 4.97 10.49 7.86 15.58 1.39 2.79 1.39 2.79 1.39 5.79q0.99 0 2 0 0.99 2.96 2 6 0.99 0 2 0 2.09 2.55 4 5.25 1.05 1.45 2.13 2.95c1.49 2.24 2.76 4.36 3.87 6.8q0.99 0 2 0 0 0.99 0 2 0.99 0 2 0c0.99 2.48 0.99 2.48 2 5-11.83 4.34-23.26 5.37-35.81 5.31q-1.97 0-4-0.01c-22.23-0.25-22.23-0.25-27.84-4.57-5.74-7.35-9.31-15.61-12.21-24.41-1.11-3.38-1.11-3.38-2.65-6.79-7.55-17.91-9.03-38.31-8.49-57.53q0.04-1.68 0.09-3.41c0.67-14.96 4.15-29.42 8.91-43.59q0.45-1.38 0.92-2.79 1.03-3.11 2.08-6.21c-12.78 24.39-20.45 48.69-20.37 76.44q0 1.18 0 2.4c0.05 18.01 2.66 33.97 9.2 50.79 1.17 3.37 1.17 3.37 1.17 7.37-10.33-2.79-18.77-9.07-27-15.63-2.37-1.87-4.76-3.6-7.25-5.31-5.11-3.79-9.1-8.89-12.75-14.06q0-0.98 0-2-0.98 0-2 0-2.1-2.8-4-5.75-1.05-1.59-2.12-3.23-0.93-1.49-1.88-3.02-0.54-0.86-1.1-1.75c-1.25-3.12-1.2-5.84-1.24-9.19q-0.01-1.01-0.02-2.05-0.03-3.29-0.01-6.57 0-1.12 0-2.26c0.06-17.77 3.09-32.94 10.37-49.18-1.7 1.7-2.66 3.85-3.81 5.94-0.75 1.34-0.75 1.34-1.52 2.71-3.95 7.92-6.49 15.85-8.42 24.48q-0.33 1.42-0.67 2.89-0.8 3.49-1.58 6.98-0.98 0-2 0-0.72-2.56-1.44-5.12c-0.4-1.43-0.4-1.43-0.81-2.89-1.96-7.8-1.99-15.43-2-23.43 0-1.01 0-1.01 0-2.04 0.01-9.82 0.31-19.07 3.25-28.52q0.42-1.36 0.84-2.75c3.55-10.03 9.86-17.74 18.16-24.25-3.46-0.49-3.46-0.49-7-1 1.88-4.75 1.88-4.75 3-7q0.99 0 2 0c0.39-0.87 0.39-0.87 0.78-1.77 1.32-2.41 2.77-4.05 4.72-5.98q0.91-0.92 1.84-1.86c1.66-1.39 1.66-1.39 3.66-1.39q0-0.98 0-2c2.02-1.41 4.01-2.69 6.13-3.94q0.85-0.52 1.72-1.05c3.63-2.19 7.33-4.16 11.15-6.01q-2.95 0-6 0c1.33-4 3.79-4.9 7.31-6.81q0.95-0.53 1.93-1.07 2.87-1.57 5.76-3.12 1.46-0.81 2.96-1.64c15.1-8.03 31.3-11.59 48.04-14.36-5.27-2.2-9.2-3.37-15-3.19q-1.69 0.04-3.44 0.08-1.26 0.06-2.56 0.11 0-0.98 0-2c41.46-21.96 92.77-24.82 133 2zm-14 13c2.05 2.25 3.01 3 6 4q0.99-0.98 2-2c-2.91-1.26-4.8-2-8-2zm-126 75c1 2 1 2 1 2zm45 10c1 3 1 3 1 3zm-104 7c1 2 1 2 1 2z"/>
	<path class="s1" d="m209 195q1.48 0.49 3 1 0 0.99 0 2 1.08 0.4 2.19 0.82c2.79 1.17 5.23 2.54 7.81 4.12q1.23 0.75 2.5 1.52 1.23 0.76 2.5 1.54 2.5 1.5 5 3-1.19 2.16-2.37 4.31-0.66 1.2-1.34 2.43c-1.03 1.8-2.14 3.54-3.29 5.26q-0.99 0-2 0-0.4 0.87-0.81 1.77c-6.34 11.91-19.51 20.47-30.19 28.23q-0.99-0.49-2-1c0.33-2.64 0.66-5.28 1-8 1.36 0.28 1.36 0.28 2.75 0.56 2.93 0.4 4.51 0.39 7.25-0.56q0-2.46 0-5c5.18-3.22 5.18-3.22 7-4 1.49 0.5 1.49 0.5 3 1q0-1.97 0-4 1.97 0 4 0-0.49-1.97-1-4 1.97 0 4 0 0-1.48 0-3 0.99 0 2 0 0.99-2.46 2-5 1.48 0 3 0 0-2.46 0-5-0.99-0.49-2-1 0.99-2.46 2-5-0.93-0.18-1.9-0.37c-1.22-0.25-1.22-0.25-2.47-0.51-1.22-0.24-1.22-0.24-2.47-0.49-2.16-0.63-2.16-0.63-4.16-2.63q0.49-0.49 1-1c-3.13-1.86-5.37-2.2-9-2q0-0.99 0-2 1.48-0.49 3-1 0-0.99 0-2z"/>
	<path class="s2" d="m218 24q-1.97 0.49-4 1 0-0.98 0-2c-1.92 0.06-1.92 0.06-3.88 0.13-2.17 0.07-2.17 0.07-4.12-0.13-0.99-0.99-0.99-0.99-2-2-6.55-3.56-13.41-6.93-21-6q-1.48 0.98-3 2-0.98-1.97-2-4c-14.67-0.64-29.31-1.17-44-1q-0.49 0.98-1 2c-2.97-0.5-2.97-0.5-6-1 25.03-14.12 67.63-1.92 91 11z"/>
	<path class="s3" d="m111 17q0.98 0.49 2 1 0 0.98 0 2-1.97 0-4 0-0.49 1.48-1 3-1.48 0-3 0 0 0.98 0 2c2.31 0 4.62 0 7 0q0.49 1.48 1 3c2.02 0.73 2.02 0.73 4 1q-0.49 2.46-1 5-3.75 0.51-7.5 1-1.04 0.14-2.11 0.29c-4.84 0.63-9.51 0.8-14.39 0.71q0-0.49 0-1c6.93-1.32 13.86-2.64 21-4-7.58-2.89-7.58-2.89-15-3.19q-1.69 0.04-3.44 0.08c-1.27 0.06-1.27 0.06-2.56 0.11q0-0.98 0-2 3.9-1.97 7.81-3.94 1.1-0.55 2.24-1.13 1.06-0.53 2.16-1.08 0.97-0.49 1.98-1c1.81-0.85 1.81-0.85 4.81-1.85z"/>
	<path class="s4" d="m132 115q1.48 0 3 0c-0.45 2.6-0.91 4.81-2.06 7.19-1.41 4.23-1.09 8.39-0.94 12.81q-0.99 0-2 0-0.49-1.97-1-4c-4.36 15.31-6.32 30.11-7 46q-0.49 0-1 0-0.04-5.69-0.06-11.38-0.02-1.58-0.03-3.21c-0.05-17.7-0.05-17.7 3.09-22.41q0.59-2.42 1-4.88c0.66-3.58 1.45-6.79 3-10.12q0.99 0 2 0 0.22-1.91 0.44-3.88c0.27-2.38 0.48-3.96 1.56-6.12zm-2 11c1 3 1 3 1 3z"/>
	<path class="s5" d="m234 37c11.41-0.49 22.95 0.14 32 8q0 0.98 0 2 0.99 0 2 0 0 0.98 0 2 0.99 0 2 0c1.51 1.97 1.51 1.97 3.13 4.5q0.8 1.25 1.63 2.53 0.61 0.97 1.24 1.97-0.49 0.98-1 2-0.49 0-1 0c-0.5 1.49-0.5 1.49-1 3-0.35-1-0.35-1-0.7-2.01-2.36-6.4-4.53-11.06-10.86-14.3-2.66-0.87-2.66-0.87-6.44-0.69q0-1.97 0-4c-10.39-1.98-10.39-1.98-21-4q0-0.49 0-1z"/>
	<path class="s6" d="m182 117q0.99 0 2 0-0.24 1.58-0.48 3.21c-1.79 14.42-2.42 30.29 3.48 43.79q0.57 1.47 1.16 2.99 1.36 3.53 2.84 7.01-0.99 0-2 0c-3-4.38-3-4.38-3-7q-1.48 0-3 0 0.06-1.2 0.13-2.44c-0.13-3.58-0.74-6.66-1.59-10.12-1.55-7.04-1.72-13.89-1.73-21.07q-0.02-1.52-0.03-3.1-0.01-1.47-0.01-3-0.01-1.33-0.01-2.7c0.26-2.83 1.07-4.99 2.24-7.57z"/>
	<path class="s7" d="m19 95q0.98 1.48 2 3-1.48 0.49-3 1 0 1.48 0 3-0.98 0-2 0c-1.08 2.65-2.09 5.28-3 8q-0.98 0-2 0c0 2.31 0 4.62 0 7q-1.48 0.49-3 1c-0.66 4.62-1.32 9.24-2 14q-0.98-0.49-2-1c0.3-13.63 5.28-26.28 15-36z"/>
	<path class="s8" d="m277 62c2.13 3.19 2.5 5.27 3 9q-2.41-0.72-4.81-1.44-1.34-0.4-2.71-0.81-2.75-0.84-5.48-1.75-3.21-0.12-6.42-0.1-1.87 0.01-3.8 0.01c-1.96 0.01-1.96 0.01-3.97 0.03q-2 0.01-4 0.01-4.91 0.02-9.81 0.05c1-2 1-2 2.7-2.62 2.75-0.45 5.36-0.49 8.16-0.48q1.66 0.01 3.38 0.01 1.73 0.01 3.51 0.03 1.75 0 3.56 0.01 4.34 0.02 8.69 0.05 0 0.98 0 2c2.31 0.33 4.62 0.66 7 1q0.49-2.46 1-5z"/>
	<path class="s9" d="m147 215q0.8 0.43 1.63 0.88c2.72 1.29 5.5 2.21 8.37 3.12-0.33 2.31-0.66 4.62-1 7q2.46 0.49 5 1c0.12 1.18 0.12 1.18 0.25 2.38q0.37 1.29 0.75 2.62 0.99 0.49 2 1 0.99 0.49 2 1c0.75 2.63 0.75 2.63 1 5q-1.73-1.4-3.44-2.81-0.95-0.78-1.93-1.58c-1.63-1.61-1.63-1.61-2.63-4.61q-0.99 0-2 0 0-0.99 0-2-0.99 0-2 0c-1.29-1.46-1.29-1.46-2.62-3.37q-0.67-0.94-1.36-1.9c-1.02-1.73-1.02-1.73-1.02-3.73q-0.99 0-2 0-0.49-1.97-1-4z"/>
	<path class="s10" d="m205 234q1.48 0.49 3 1c-1.37 4.41-3.22 6.36-6.88 9.13q-1.28 0.98-2.61 2-1.24 0.92-2.51 1.87-1.14 0.86-2.32 1.74-0.83 0.62-1.68 1.26-0.99-0.49-2-1c0.33-2.64 0.66-5.28 1-8q1.35 0.28 2.75 0.56c2.93 0.4 4.51 0.39 7.25-0.56-0.12-1.14-0.12-1.14-0.25-2.31 0.25-2.69 0.25-2.69 2.06-4.57q1.08-0.55 2.19-1.12z"/>
	<path class="s11" d="m179 11c6.3 0.53 11.84 1.62 17.81 3.69q1.16 0.39 2.35 0.79c6.59 2.3 12.73 5.14 18.84 8.52q-1.97 0.49-4 1 0-0.98 0-2c-1.92 0.06-1.92 0.06-3.87 0.13-2.18 0.07-2.18 0.07-4.13-0.13q-0.99-0.98-2-2c-6.71-3.65-13.27-6.67-21-6q-0.49-1.48-1-3-1.48-0.49-3-1z"/>
	<path class="s12" d="m12 159c1.05 3.15 0.99 3.93 0.22 7.01q-0.27 1.13-0.55 2.3-0.3 1.17-0.61 2.38-0.29 1.19-0.59 2.41-0.73 2.95-1.47 5.9-0.98 0-2 0c-3.44-11.52-3.44-11.52-3-17q0.98 0 2 0 0 2.46 0 5 0.98 0 2 0 0-1.48 0-3 0.98 0 2 0 0.98-2.46 2-5z"/>
	<path class="s13" d="m45 66c-0.75 1.94-0.75 1.94-2 4-2.13 0.75-2.13 0.75-4 1q0 0.98 0 2-1.48 0-3 0 0.49 1.97 1 4-1.63 0.89-3.31 1.81c-2.6 1.48-4.73 2.89-6.69 5.19-0.31-2.19-0.31-2.19 0-5 2.49-3 4.98-4.99 8.25-7.13 3.01-1.64 3.01-1.64 3.75-4.87 2.1-0.75 3.77-1 6-1z"/>
	<path class="s14" d="m207 77q1.48 0.98 3 2 0.99 0.49 2 1-1.19 1.05-2.41 2.13c-5.85 5.21-11.27 10.26-15.59 16.87-0.98-3.08-1.15-3.69 0.31-6.75q0.83-1.11 1.69-2.25 0.99 0 2 0 0-0.99 0-2 0.99 0 2 0 0-1.48 0-3c1.94-2.4 2.99-3 6-4 0.73-2.02 0.73-2.02 1-4z"/>
	<path class="s15" d="m99 264q2.69-0.04 5.38-0.06 1.48-0.02 3.02-0.04c2.6 0.1 2.6 0.1 4.6 1.1 6.68 0.9 13.34 1.28 20.06 1.56q1.44 0.07 2.91 0.13 3.52 0.16 7.03 0.31 0 0.49 0 1-6.08 0.07-12.16 0.11-2.06 0.01-4.12 0.04c-17.54 0.22-17.54 0.22-25.72-2.15q-0.49-0.99-1-2z"/>
	<path class="s16" d="m137 227c4 4.63 4 4.63 4 8q0.99 0 2 0c0.66 1.98 1.32 3.96 2 6q0.99 0 2 0c1.51 1.75 1.51 1.75 3.13 4q0.8 1.11 1.63 2.25c0.61 0.87 0.61 0.87 1.24 1.75q-0.49 0.99-1 2-0.49-0.49-1-1-0.99 0.99-2 2c-0.99-2.31-1.98-4.62-3-7q-0.99 0.49-2 1 0-2.95 0-6-1.97-0.99-4-2 0-2.46 0-5-1.48-0.49-3-1 0-2.46 0-5z"/>
	<path class="s17" d="m26 139q0.98 0 2 0-0.49 1.48-1 3-0.49-1.48-1-3zm-2 3q1.97 0.99 4 2c-0.83 4.5-2.65 7.88-6.19 10.81q-0.89 0.59-1.81 1.19c-0.19-9.67-0.19-9.67 2.56-12.75q0.71-0.62 1.44-1.25z"/>
	<path class="s18" d="m209 37q1.97 0 4 0 0 0.98 0 2c2.31 0.66 4.62 1.32 7 2q0.49 1.97 1 4-1.97 0-4 0 0-0.98 0-2-1.48 0-3 0 0.99 0.98 2 2-1.97 0.49-4 1-0.49-0.98-1-2-1.23-0.46-2.5-0.94-1.23-0.52-2.5-1.06-0.49-1.48-1-3c2.48 0.5 2.48 0.5 5 1q-0.49-1.48-1-3z"/>
	<path class="s19" d="m37 67q0.98 0.49 2 1c-1.28 3.83-2.59 3.99-6 6-3.63 3.14-5.58 5.14-6 10q-2.96 0-6 0 0-0.98 0-2 0.98 0 2 0 0.38-0.87 0.78-1.77c1.32-2.41 2.77-4.05 4.72-5.98q0.91-0.92 1.84-1.86c1.66-1.39 1.66-1.39 3.66-1.39q0-0.98 0-2 1.48-0.98 3-2z"/>
	<path class="s20" d="m80 132q0.98 0 2 0c-0.38 4.3-0.77 7.46-2.5 11.44-1.78 4.22-2.2 8.03-2.5 12.56q-0.98 0-2 0-0.49 1.48-1 3c0.45-9.47 3.17-18.01 6-27z"/>
	<path class="s21" d="m218 25c4.75 1.88 4.75 1.88 7 3q0 0.98 0 2 0.83 0.34 1.69 0.69c2.94 1.67 4.99 3.86 7.31 6.31q-2.46 0.98-5 2-0.35-1.14-0.71-2.3c-1.53-3.21-2.88-4.06-5.91-5.82-2.48-1.45-2.48-1.45-4.38-2.88q0-1.48 0-3z"/>
	<path class="s22" d="m182 151c2.37 2.37 2.57 4.24 3.29 7.43 1.47 5.33 3.66 10.44 5.71 15.57q-0.99 0-2 0c-3-4.38-3-4.38-3-7q-1.48 0-3 0 0.03-1.42 0.06-2.88c0.17-3.03 0.17-3.03-1.06-5.12-0.13-2.67-0.04-5.32 0-8z"/>
	<path class="s23" d="m4 153c0.99 1.49 0.99 1.49 2 3q1.48 0.49 3 1c0.33 2.31 0.66 4.62 1 7q-0.98 0-2 0 0 1.48 0 3-0.98 0-2 0 0-2.46 0-5-0.98 0-2 0c0-2.97 0-5.94 0-9z"/>
	<path class="s24" d="m167 239c2.97 0.5 2.97 0.5 6 1q0.49 1.97 1 4c2.97 0.5 2.97 0.5 6 1 0.66 1.98 1.32 3.96 2 6-3.74-1.63-6.62-3.98-9.75-6.56q-1.47-1.2-2.98-2.44-1.12-0.99-2.27-2 0-0.49 0-1z"/>
	<path class="s25" d="m159 258q0.99 0 2 0 0.99 2.46 2 5c-5.53 2.11-10.07 3.38-16 3 3.07-2.05 5.78-3.01 9.26-4.12 2.11-0.81 2.11-0.81 2.74-3.88z"/>
	<path class="s26" d="m147 215q0.8 0.43 1.63 0.88c2.72 1.29 5.5 2.21 8.37 3.12q-0.49 2.95-1 6c-1.87-0.19-1.87-0.19-4-1-1.25-2.56-1.25-2.56-2-5q-0.99 0-2 0-0.49-1.97-1-4z"/>
	<path class="s27" d="m225 208q2.46 0.49 5 1c-0.43 4.75-1.33 6.92-5 10q0-2.95 0-6-0.99-0.49-2-1 0.99-1.97 2-4z"/>
	<path class="s28" d="m67 149q0.49 0 1 0c0 2.64 0 5.28 0 8q-0.95 0.15-1.94 0.31c-1.02 0.34-1.02 0.34-2.06 0.69q-0.49 1.48-1 3-0.49 0-1 0c0-2.31 0-4.62 0-7q0.98 0 2 0 0.49-1.48 1-3 0.98 0.49 2 1 0-1.48 0-3z"/>
	<path class="s29" d="m66 229q0.49 0 1 0 0.72 2.81 1.44 5.63 0.4 1.55 0.81 3.16c0.71 3.06 1.27 6.1 1.75 9.21-3-1-3-1-4.18-3.17-0.92-3.19-1.02-5.83-0.95-9.14q0.03-1.6 0.06-3.24 0.03-1.21 0.07-2.45z"/>
	<path class="s30" d="m277 62c2.13 3.19 2.5 5.27 3 9q-2.41-0.68-4.81-1.38-1.34-0.38-2.71-0.77c-2.48-0.85-2.48-0.85-5.48-2.85 2.97 0.33 5.94 0.66 9 1q0.49-2.46 1-5z"/>
	<path class="s31" d="m273 58q1.97 1.48 4 3-0.49 2.95-1 6-2.46 0-5 0c-0.55-2.08-1-3.84-1-6q1.48 0.49 3 1 0-1.97 0-4z"/>
	<path class="s32" d="m82 134q1.48 0.99 3 2c-1.31 4.23-2.84 8.13-5 12-0.99 0.5-0.99 0.5-2 1 1.07-5.11 2.23-10.07 4-15z"/>
	<path class="s33" d="m32 124q0.49 1.48 1 3 0.98 0.49 2 1c-1.98 2.97-1.98 2.97-4 6q-0.98-0.99-2-2-1.48 0-3 0c1.98-2.64 3.96-5.28 6-8z"/>
	<path class="s34" d="m20 84q0.49 0.98 1 2-0.49 0.98-1 2c2.31 0 4.62 0 7 0q0-1.48 0-3 0.98 0 2 0c-0.33 2.31-0.66 4.62-1 7-2.91 1.26-4.8 2-8 2 1.65-1.32 3.3-2.64 5-4-2.31-0.33-4.62-0.66-7-1q0.98-2.46 2-5z"/>
	<path class="s35" d="m54 51q0.98 0.49 2 1-0.49 1.97-1 4 0.98 0 2 0 0 0.98 0 2c-3.3 0-6.6 0-10 0 1.33-4 3.5-4.84 7-7z"/>
	<path class="s36" d="m234 37q3.06-0.08 6.13-0.13c1.7-0.03 1.7-0.03 3.44-0.07 3.49 0.2 6.19 0.95 9.43 2.2q0 0.98 0 2-1.17-0.2-2.38-0.4c-5.53-0.93-11.06-1.84-16.62-2.6q0-0.49 0-1z"/>
	<path class="s37" d="m197 183q1.02 1.05 2.06 2.13c3.15 3.15 6.53 6.01 9.94 8.87-3.11 0-5.94-0.46-9-1q0-1.48 0-3-0.99-0.49-2-1c-0.62-3.06-0.62-3.06-1-6z"/>
	<path class="s38" d="m122 179q0.49 0 1 0 0.8 4.12 1.56 8.25 0.23 1.16 0.46 2.36 0.21 1.12 0.42 2.28 0.2 1.03 0.4 2.1c0.18 2.22-0.19 3.89-0.84 6.01-3.25-4.33-3.37-8.1-3.19-13.31q0.02-1.11 0.04-2.25 0.06-2.72 0.15-5.44z"/>
	<path class="s39" d="m31 225q1.97 0 4 0 0 0.99 0 2 1.48 0.49 3 1 0 0.99 0 2 0.98 0 2 0 0 1.48 0 3 0.98 0 2 0-0.49 0.99-1 2c-4.94-2.4-7.04-5.52-10-10z"/>
	<path class="s40" d="m36 225c2.06 0.44 2.06 0.44 4 1q0 1.48 0 3 1.97-0.49 4-1-0.49 2.46-1 5-1.48 0-3 0 0-1.48 0-3-0.98 0-2 0c-1.63-2-1.63-2-3-4q0.49-0.49 1-1z"/>
	<path class="s41" d="m16 137q0.49 1.48 1 3 0.98 0 2 0 0 2.46 0 5-1.48 0-3 0c-0.33 2.31-0.66 4.62-1 7q-0.49 0-1 0c-0.33-2.31-0.66-4.62-1-7q1.97-0.49 4-1 0-0.99 0-2-0.98-0.49-2-1 0.49-1.97 1-4z"/>
	<path class="s42" d="m19 95q0.98 1.48 2 3-1.48 0.49-3 1 0 1.48 0 3-0.98 0-2 0-0.49 1.48-1 3-1.48-0.49-3-1 1.47-1.97 2.94-3.94 0.81-1.09 1.65-2.21c1.41-1.85 1.41-1.85 2.41-2.85z"/>
	<path class="s43" d="m64 158q1.48 0 3 0-1 8-2 16-0.49 0-1 0c0-5.28 0-10.56 0-16z"/>
	<path class="s44" d="m258 41c2.97 1.12 5.33 2.22 8 4q0 0.98 0 2 0.99 0 2 0 0 0.98 0 2 0.99 0 2 0-0.49 0.98-1 2-1.76-1.18-3.5-2.38-0.97-0.65-1.97-1.33-0.75-0.64-1.53-1.29 0-0.98 0-2-1.97 0-4 0 0-1.48 0-3z"/>
	<path class="s45" d="m62 213c0.99 0.5 0.99 0.5 2 1 0.48 2.54 0.84 5 1.13 7.56q0.12 1.06 0.26 2.16 0.31 2.64 0.61 5.28-0.98 0-2 0c-1.39-5.45-2.24-10.37-2-16z"/>
	<path class="s46" d="m29 124q0.98 0.98 2 2-1.43 2.01-2.88 4-0.79 1.11-1.61 2.25-0.74 0.86-1.51 1.75-0.98 0-2 0 0-2.46 0-5 2.46-0.49 5-1 0.49-1.97 1-4z"/>
	<path class="s47" d="m182 117q0.99 0 2 0c-0.71 8.57-0.71 8.57-4 12-0.18-4.55 0-7.88 2-12z"/>
	<path class="s48" d="m132 115q1.48 0 3 0c-0.56 3.95-1.74 6.71-4 10q-0.49 0-1 0c0.88-7.75 0.88-7.75 2-10z"/>
	<path class="s49" d="m29 92c-1.13 2.5-1.13 2.5-3 5-3.19 0.31-3.19 0.31-6 0q0-0.98 0-2c2.96-2.85 4.95-3.34 9-3z"/>
	<path class="s50" d="m22 83q2.46 0.49 5 1 0 1.97 0 4c-2.31 0-4.62 0-7 0q0.98-2.46 2-5z"/>
	<path class="s51" d="m136 189c2.83 3.2 3.52 5.78 4 10-0.99 0.5-0.99 0.5-2 1-3.08-6.4-3.08-6.4-2.69-9.44q0.34-0.77 0.69-1.56z"/>
	<path class="s52" d="m113 26q0 0.98 0 2 0.98 0.49 2 1c-7.51 0.37-7.51 0.37-10-1.5q-0.49-0.74-1-1.5c5.63-1.13 5.63-1.13 9 0z"/>
	<path class="s53" d="m179 11c5.57 0.48 10.67 1.3 16 3q0 0.49 0 1c-3.96 0-7.92 0-12 0q-0.49-1.48-1-3-1.48-0.49-3-1z"/>
	<path class="s54" d="m131 214c1.56 2.34 2.9 4.58 4.19 7.06q0.54 1.04 1.1 2.1 0.35 0.91 0.71 1.84-0.49 0.99-1 2c-3.11-1.56-3.69-3.85-5-7-0.19-3.38-0.19-3.38 0-6z"/>
	<path class="s55" d="m217 205c2.76 0.52 5.33 1.11 8 2q-0.49 1.48-1 3-1.48 0.49-3 1-2.06-1.94-4-4 0-0.99 0-2z"/>
	<path class="s56" d="m22 133q1.97 0 4 0 0 0.99 0 2-0.98 0-2 0-0.4 1.39-0.81 2.81c-1.1 2.95-1.81 4.25-4.19 6.19-0.12-2.38-0.12-2.38 0-5q0.98-0.99 2-2c0.64-2.07 0.64-2.07 1-4z"/>
	<path class="s57" d="m8 118q1.97 0.49 4 1 0 1.48 0 3-1.48 0.49-3 1-0.56 1.99-1 4c-0.99 0.5-0.99 0.5-2 1 0.66-3.3 1.32-6.6 2-10z"/>
	<path class="s58" d="m89 109c1.43 2.86 0.6 4.93 0 8q-2.46 0.49-5 1 0.49-2.46 1-5 0.98 0 2 0 0.98-1.97 2-4z"/>
	<path class="s59" d="m127 129q0.98 0 2 0c-1.49 6.44-1.49 6.44-3 13q-0.49 0-1 0-0.08-2.12-0.13-4.25-0.03-1.18-0.07-2.39c0.22-2.57 0.91-4.15 2.2-6.36z"/>
	<path class="s60" d="m96 97q1.53 1.47 3 3 0 0.49 0 1-2.46 0-5 0 0 0.98 0 2-1.97-0.98-4-2 0.49-0.98 1-2 2.46 0 5 0 0-0.98 0-2z"/>
	<path class="s61" d="m95 37c-2 2-2 2-4.38 2.2q-1.35-0.04-2.75-0.08c-1.36-0.02-1.36-0.02-2.75-0.05q-1.05-0.03-2.12-0.07c3.75-3.75 7.02-3.02 12-2z"/>
	<path class="s62" d="m71 247c2.13 3.19 2.5 5.27 3 9q-2.95-0.99-6-2 1.48-0.49 3-1 0-2.95 0-6z"/>
	<path class="s63" d="m139 201q0.99 0 2 0 0 1.97 0 4 1.48 0.49 3 1c1.19 3.56 1.19 3.56 2 7q-0.99 0-2 0-1.26-2.43-2.5-4.88-0.69-1.35-1.41-2.74c-1.09-2.38-1.09-2.38-1.09-4.38z"/>
	<path class="s64" d="m227 67c3.96 0 7.92 0 12 0q0 0.49 0 1c-3.96 0.99-7.92 1.98-12 3q0-1.97 0-4z"/>
	<path class="s65" d="m153 251c2 1.38 2 1.38 4 3q0 0.99 0 2 0.99 0 2 0 0 0.99 0 2-2.46 0-5 0c-0.33-2.31-0.66-4.62-1-7z"/>
	<path class="s66" d="m185 108q1.48 0 3 0c-0.99 2.97-1.98 5.94-3 9q-0.49 0-1 0c-0.1-6.15-0.1-6.15 0-8q0.49-0.49 1-1z"/>
	<path class="s67" d="m12 153q0.98 0.49 2 1c-0.5 3.69-1.1 5.6-4 8q-0.49-1.97-1-4 1.48-0.49 3-1 0-1.97 0-4z"/>
	<path class="s68" d="m26 135q0.98 1.48 2 3-0.98 1.97-2 4-0.98 0-2 0-0.49 1.48-1 3-0.49-0.99-1-2c0.78-1.95 0.78-1.95 1.94-4.13 0.57-1.08 0.57-1.08 1.15-2.19q0.45-0.83 0.91-1.68z"/>
	<path class="s69" d="m134 118q1.48 0.49 3 1 0 0.98 0 2-1.48 0-3 0 0 2.95 0 6c-0.99 0.5-0.99 0.5-2 1 0.88-7.75 0.88-7.75 2-10z"/>
	<path class="s70" d="m81 231q0.49 0.99 1 2 0.98 0 2 0c0.33 2.97 0.66 5.94 1 9-2.27-2.27-2.99-3.97-4-7q0-1.97 0-4z"/>
	<path class="s71" d="m77 219c3 2 3 2 3.51 4.38q0.09 1.35 0.18 2.75 0.1 1.35 0.2 2.75 0.05 1.05 0.11 2.12c-2.42-2.42-2.53-3.8-3.13-7.13q-0.25-1.35-0.5-2.75-0.18-1.05-0.37-2.12z"/>
	<path class="s72" d="m192 15q2.19 0.13 4.38 0.31c1.21 0.09 1.21 0.09 2.46 0.18 2.16 0.51 2.16 0.51 4.16 3.51-3.95-0.55-7.35-1.39-11-3q0-0.49 0-1z"/>
	<path class="s45" d="m47 62q0 0.98 0 2-0.98 0-2 0 0 0.98 0 2-2.95 0.49-6 1c4.84-5 4.84-5 8-5z"/>
	<path class="s73" d="m230 33q1.97 1.97 4 4-2.46 0.98-5 2-0.49-2.46-1-5 0.99-0.49 2-1z"/>
	<path class="s74" d="m188 249q0.99 1.48 2 3-2.46 0.99-5 2-1.48-1.48-3-3 2.95 0 6 0 0-0.99 0-2z"/>
	<path class="s75" d="m18 158c1.48 0.99 1.48 0.99 3 2-0.38 2.44-0.38 2.44-1 5-0.99 0.5-0.99 0.5-2 1 0-2.64 0-5.28 0-8z"/>
	<path class="s76" d="m222 70q2.46 0.49 5 1c-2.94 1.52-5.92 2.8-9 4q0.49-1.48 1-3 1.48 0 3 0 0-0.98 0-2z"/>
	<path class="s77" d="m70 45c1.98 0.5 1.98 0.5 4 1q-0.49 1.48-1 3-1.97 0-4 0 0.49-1.97 1-4z"/>
	<path class="s78" d="m99 23q-0.49 1.97-1 4-2.95 0.49-6 1 0-0.98 0-2c4.38-3 4.38-3 7-3z"/>
	<path class="s79" d=""/>
	<path class="s79" d=""/>
	<path class="s79" d=""/>
	<path class="s79" d=""/>
	<path class="s79" d=""/>
	<path class="s79" d=""/>
	<path class="s79" d=""/>
	<path class="s79" d=""/>
	<path class="s79" d=""/>
	<path class="s79" d=""/>
	<path class="s79" d=""/>
	<path class="s79" d=""/>
	<path class="s79" d=""/>
	<path class="s79" d=""/>
	<path class="s79" d=""/>
	<path class="s79" d=""/>
	<path class="s79" d=""/>
	<path class="s79" d=""/>
	<path class="s79" d=""/>
	<path class="s79" d=""/>
	<path class="s79" d=""/>
	<path class="s79" d=""/>
	<path class="s79" d=""/>
	<path class="s79" d=""/>
	<path class="s79" d=""/>
	<path class="s79" d=""/>
	<path class="s79" d=""/>
	<path class="s79" d=""/>
	<path class="s79" d=""/>
	<path class="s79" d=""/>
	<path class="s79" d=""/>
	<path class="s79" d=""/>
	<path class="s79" d=""/>
	<path class="s79" d=""/>
	<path class="s79" d=""/>
	<path class="s79" d=""/>
	<path class="s79" d=""/>
	<path class="s79" d=""/>
	<path class="s79" d=""/>
	<path class="s79" d=""/>
	<path class="s79" d=""/>
	<path class="s79" d=""/>
	<path class="s79" d=""/>
	<path class="s79" d=""/>
	<path class="s79" d=""/>
	<path class="s79" d=""/>
	<path class="s79" d=""/>
	<path class="s79" d=""/>
	<path class="s79" d=""/>
	<path class="s79" d=""/>
	<path class="s79" d=""/>
	<path class="s79" d=""/>
	<path class="s79" d=""/>
	<path class="s79" d=""/>
	<path class="s79" d=""/>
	<path class="s79" d=""/>
	<path class="s79" d=""/>
	<path class="s79" d=""/>
	<path class="s79" d=""/>
	<path class="s79" d=""/>
	<path class="s79" d=""/>
	<path class="s79" d=""/>
	<path class="s79" d=""/>
	<path class="s79" d=""/>
	<path class="s79" d=""/>
	<path class="s79" d=""/>
	<path class="s79" d=""/>
	<path class="s79" d=""/>
	<path class="s79" d=""/>
	<path class="s79" d=""/>
	<path class="s79" d=""/>
	<path class="s79" d=""/>
	<path class="s79" d=""/>
	<path class="s79" d=""/>
	<path class="s79" d=""/>
	<path class="s79" d=""/>
	<path class="s79" d=""/>
	<path class="s79" d=""/>
	<path class="s79" d=""/>
	<path class="s79" d=""/>
	<path class="s79" d=""/>
	<path class="s79" d=""/>
	<path class="s79" d=""/>
	<path class="s79" d=""/>
	<path class="s79" d=""/>
	<path class="s79" d=""/>
</svg>