<?xml version="1.0" encoding="UTF-8"?>
<svg xmlns="http://www.w3.org/2000/svg" xmlns:xlink="http://www.w3.org/1999/xlink" width="32px" height="32px" viewBox="0 0 32 32" version="1.1">
<g id="surface1">
<path style=" stroke:none;fill-rule:evenodd;fill:rgb(22.352941%,22.745098%,23.137255%);fill-opacity:1;" d="M 10.175781 20.1875 C 10.175781 20.796875 10.28125 21.097656 10.316406 20.59375 C 10.335938 20.34375 10.351562 20.316406 10.527344 20.296875 C 11.136719 20.230469 11.058594 19.585938 10.441406 19.585938 L 10.175781 19.585938 L 10.175781 20.1875 M 11.199219 20.222656 C 11.199219 20.75 11.21875 20.863281 11.296875 20.863281 C 11.375 20.863281 11.390625 20.757812 11.390625 20.289062 C 11.390625 19.675781 11.425781 19.621094 11.714844 19.777344 C 11.90625 19.878906 11.871094 20.089844 11.648438 20.183594 L 11.453125 20.265625 L 11.652344 20.5625 C 11.925781 20.976562 12.089844 20.964844 11.875 20.546875 C 11.789062 20.386719 11.792969 20.359375 11.894531 20.265625 C 12.023438 20.148438 12.027344 19.828125 11.902344 19.679688 C 11.851562 19.617188 11.707031 19.585938 11.511719 19.585938 L 11.199219 19.585938 L 11.199219 20.222656 M 12.566406 19.660156 C 12.246094 19.8125 12.199219 20.3125 12.472656 20.621094 C 12.84375 21.035156 13.472656 20.820312 13.546875 20.246094 C 13.574219 20.035156 13.550781 19.957031 13.410156 19.789062 C 13.265625 19.617188 13.195312 19.585938 12.96875 19.589844 C 12.824219 19.589844 12.640625 19.621094 12.566406 19.660156 M 13.695312 19.648438 C 13.695312 19.683594 13.734375 19.710938 13.785156 19.710938 C 13.910156 19.710938 13.9375 19.816406 13.9375 20.257812 C 13.941406 20.777344 13.941406 20.800781 14.015625 20.800781 C 14.054688 20.800781 14.078125 20.574219 14.078125 20.257812 C 14.078125 19.753906 14.089844 19.710938 14.207031 19.710938 C 14.277344 19.710938 14.335938 19.683594 14.335938 19.648438 C 14.335938 19.613281 14.191406 19.585938 14.015625 19.585938 C 13.839844 19.585938 13.695312 19.613281 13.695312 19.648438 M 14.59375 20.191406 L 14.59375 20.800781 L 14.910156 20.800781 C 15.089844 20.800781 15.230469 20.769531 15.230469 20.734375 C 15.230469 20.699219 15.117188 20.671875 14.976562 20.671875 C 14.734375 20.671875 14.71875 20.660156 14.71875 20.480469 C 14.71875 20.296875 14.734375 20.289062 14.976562 20.289062 C 15.160156 20.289062 15.230469 20.261719 15.230469 20.195312 C 15.230469 20.136719 15.195312 20.113281 15.136719 20.136719 C 15.082031 20.15625 14.964844 20.15625 14.875 20.132812 C 14.742188 20.097656 14.714844 20.058594 14.730469 19.917969 C 14.75 19.765625 14.785156 19.742188 14.992188 19.722656 C 15.347656 19.695312 15.285156 19.585938 14.910156 19.585938 L 14.59375 19.585938 L 14.59375 20.191406 M 15.765625 19.679688 C 15.546875 19.832031 15.476562 20.28125 15.625 20.558594 C 15.824219 20.933594 16.703125 20.882812 16.703125 20.496094 C 16.703125 20.421875 16.65625 20.433594 16.476562 20.539062 C 16.179688 20.710938 16.03125 20.707031 15.835938 20.515625 C 15.636719 20.316406 15.636719 20.070312 15.835938 19.867188 C 16.03125 19.675781 16.246094 19.667969 16.476562 19.847656 C 16.589844 19.9375 16.671875 19.964844 16.714844 19.921875 C 16.753906 19.878906 16.71875 19.8125 16.605469 19.71875 C 16.398438 19.558594 15.96875 19.535156 15.765625 19.679688 M 16.960938 19.648438 C 16.960938 19.683594 17 19.710938 17.050781 19.710938 C 17.179688 19.710938 17.214844 19.859375 17.214844 20.351562 C 17.214844 20.59375 17.246094 20.808594 17.28125 20.832031 C 17.320312 20.855469 17.34375 20.660156 17.34375 20.292969 C 17.34375 19.753906 17.351562 19.710938 17.472656 19.710938 C 17.542969 19.710938 17.601562 19.683594 17.601562 19.648438 C 17.601562 19.613281 17.457031 19.585938 17.28125 19.585938 C 17.105469 19.585938 16.960938 19.613281 16.960938 19.648438 M 17.855469 20.191406 C 17.855469 20.636719 17.878906 20.800781 17.9375 20.800781 C 17.996094 20.800781 18.015625 20.636719 18.015625 20.191406 C 18.015625 19.75 17.996094 19.585938 17.9375 19.585938 C 17.878906 19.585938 17.855469 19.75 17.855469 20.191406 M 18.496094 19.699219 C 18.390625 19.78125 18.34375 19.90625 18.320312 20.132812 C 18.292969 20.414062 18.308594 20.46875 18.464844 20.625 C 18.652344 20.8125 18.664062 20.816406 19.007812 20.8125 C 19.175781 20.808594 19.277344 20.757812 19.40625 20.613281 C 19.792969 20.179688 19.511719 19.585938 18.925781 19.585938 C 18.742188 19.585938 18.585938 19.625 18.496094 19.699219 M 19.839844 20.191406 C 19.839844 20.679688 19.859375 20.800781 19.933594 20.800781 C 20.003906 20.800781 20.03125 20.695312 20.046875 20.375 L 20.0625 19.945312 L 20.371094 20.410156 C 20.539062 20.664062 20.707031 20.863281 20.742188 20.851562 C 20.839844 20.820312 20.851562 19.582031 20.753906 19.582031 C 20.703125 19.585938 20.671875 19.738281 20.660156 20.046875 L 20.640625 20.511719 L 20.449219 20.222656 C 20.34375 20.066406 20.214844 19.855469 20.164062 19.761719 C 20.117188 19.664062 20.023438 19.585938 19.957031 19.585938 C 19.851562 19.585938 19.839844 19.644531 19.839844 20.191406 M 21.867188 19.625 C 21.84375 19.648438 21.824219 19.777344 21.824219 19.910156 C 21.824219 20.125 21.84375 20.15625 22.042969 20.222656 C 22.292969 20.304688 22.359375 20.421875 22.246094 20.578125 C 22.179688 20.667969 22.140625 20.675781 22.023438 20.613281 C 21.949219 20.570312 21.902344 20.511719 21.921875 20.476562 C 21.941406 20.441406 21.914062 20.414062 21.859375 20.414062 C 21.804688 20.414062 21.761719 20.453125 21.761719 20.5 C 21.761719 20.839844 22.296875 20.910156 22.449219 20.59375 C 22.558594 20.363281 22.46875 20.191406 22.171875 20.066406 C 21.925781 19.964844 21.902344 19.898438 22.058594 19.769531 C 22.148438 19.695312 22.175781 19.703125 22.257812 19.824219 C 22.308594 19.902344 22.375 19.96875 22.40625 19.96875 C 22.492188 19.96875 22.476562 19.75 22.386719 19.660156 C 22.304688 19.578125 21.9375 19.554688 21.867188 19.625 M 22.886719 19.78125 C 22.78125 19.90625 22.71875 20.054688 22.71875 20.191406 C 22.71875 20.328125 22.78125 20.476562 22.886719 20.601562 C 23.027344 20.773438 23.09375 20.800781 23.355469 20.800781 C 23.691406 20.800781 23.890625 20.648438 23.96875 20.335938 C 24.078125 19.902344 23.816406 19.585938 23.355469 19.585938 C 23.09375 19.585938 23.027344 19.613281 22.886719 19.78125 M 24.289062 20.175781 C 24.289062 20.753906 24.292969 20.769531 24.449219 20.800781 C 24.648438 20.84375 24.894531 20.804688 24.894531 20.726562 C 24.894531 20.699219 24.808594 20.671875 24.703125 20.671875 L 24.511719 20.671875 L 24.511719 20.128906 C 24.511719 19.652344 24.496094 19.585938 24.398438 19.582031 C 24.300781 19.582031 24.289062 19.65625 24.289062 20.175781 M 25.121094 20.085938 C 25.121094 20.417969 25.148438 20.625 25.207031 20.695312 C 25.3125 20.820312 25.730469 20.835938 25.84375 20.722656 C 25.933594 20.632812 25.953125 19.585938 25.863281 19.585938 C 25.832031 19.585938 25.796875 19.800781 25.78125 20.066406 C 25.765625 20.402344 25.726562 20.570312 25.664062 20.609375 C 25.53125 20.691406 25.496094 20.6875 25.378906 20.570312 C 25.308594 20.5 25.28125 20.34375 25.28125 20.027344 C 25.28125 19.714844 25.257812 19.585938 25.199219 19.585938 C 25.144531 19.585938 25.121094 19.726562 25.121094 20.085938 M 26.175781 19.648438 C 26.175781 19.683594 26.21875 19.710938 26.273438 19.710938 C 26.351562 19.710938 26.367188 19.8125 26.367188 20.25 C 26.367188 20.667969 26.390625 20.792969 26.464844 20.824219 C 26.542969 20.855469 26.558594 20.78125 26.558594 20.386719 C 26.558594 19.859375 26.597656 19.710938 26.726562 19.710938 C 26.777344 19.710938 26.816406 19.683594 26.816406 19.648438 C 26.816406 19.613281 26.671875 19.585938 26.496094 19.585938 C 26.320312 19.585938 26.175781 19.613281 26.175781 19.648438 M 27.070312 20.1875 C 27.070312 20.699219 27.089844 20.800781 27.171875 20.800781 C 27.253906 20.800781 27.265625 20.710938 27.246094 20.210938 C 27.234375 19.832031 27.199219 19.617188 27.148438 19.597656 C 27.09375 19.582031 27.070312 19.738281 27.070312 20.1875 M 27.71875 19.714844 C 27.605469 19.808594 27.558594 19.929688 27.535156 20.152344 C 27.507812 20.429688 27.523438 20.480469 27.6875 20.628906 C 27.832031 20.761719 27.933594 20.800781 28.164062 20.800781 C 28.523438 20.800781 28.730469 20.613281 28.78125 20.242188 C 28.808594 20.039062 28.785156 19.957031 28.640625 19.789062 C 28.492188 19.613281 28.429688 19.585938 28.171875 19.585938 C 27.96875 19.585938 27.824219 19.628906 27.71875 19.714844 M 29.089844 20.203125 C 29.09375 20.617188 29.117188 20.832031 29.167969 20.847656 C 29.21875 20.863281 29.25 20.726562 29.261719 20.40625 L 29.28125 19.9375 L 29.550781 20.34375 C 29.703125 20.566406 29.824219 20.777344 29.824219 20.8125 C 29.824219 20.847656 29.875 20.863281 29.9375 20.851562 C 30.035156 20.832031 30.046875 20.75 30.046875 20.226562 C 30.046875 19.816406 30.023438 19.617188 29.972656 19.601562 C 29.917969 19.582031 29.886719 19.714844 29.875 20.042969 L 29.855469 20.511719 L 29.566406 20.046875 C 29.164062 19.398438 29.085938 19.425781 29.089844 20.203125 M 30.425781 19.675781 C 30.339844 19.894531 30.429688 20.128906 30.636719 20.21875 C 30.878906 20.324219 30.933594 20.425781 30.824219 20.574219 C 30.738281 20.695312 30.527344 20.644531 30.527344 20.503906 C 30.527344 20.457031 30.484375 20.414062 30.433594 20.414062 C 30.378906 20.414062 30.335938 20.460938 30.335938 20.511719 C 30.335938 20.621094 30.558594 20.863281 30.660156 20.863281 C 30.78125 20.863281 30.972656 20.734375 31.042969 20.605469 C 31.148438 20.410156 31.058594 20.234375 30.78125 20.09375 C 30.5 19.953125 30.476562 19.898438 30.632812 19.769531 C 30.722656 19.695312 30.75 19.703125 30.832031 19.824219 C 30.886719 19.902344 30.953125 19.96875 30.984375 19.96875 C 31.066406 19.96875 31.050781 19.75 30.964844 19.660156 C 30.855469 19.554688 30.46875 19.5625 30.425781 19.675781 M 10.347656 19.753906 C 10.324219 19.777344 10.304688 19.878906 10.304688 19.980469 C 10.304688 20.113281 10.335938 20.160156 10.425781 20.160156 C 10.632812 20.160156 10.753906 20.089844 10.753906 19.964844 C 10.753906 19.796875 10.457031 19.644531 10.347656 19.753906 M 12.664062 19.777344 C 12.609375 19.808594 12.523438 19.925781 12.480469 20.035156 C 12.40625 20.207031 12.410156 20.253906 12.523438 20.402344 C 12.71875 20.667969 12.953125 20.726562 13.167969 20.566406 C 13.421875 20.375 13.445312 20.03125 13.210938 19.847656 C 13.027344 19.703125 12.832031 19.679688 12.664062 19.777344 M 18.625 19.839844 C 18.46875 19.996094 18.453125 20.363281 18.597656 20.507812 C 18.835938 20.746094 19.214844 20.679688 19.332031 20.375 C 19.421875 20.132812 19.40625 20.039062 19.234375 19.867188 C 19.042969 19.679688 18.796875 19.667969 18.625 19.839844 M 23.082031 19.84375 C 22.9375 19.957031 22.910156 20.023438 22.925781 20.207031 C 22.976562 20.804688 23.808594 20.796875 23.808594 20.199219 C 23.808594 19.777344 23.414062 19.582031 23.082031 19.84375 M 27.855469 19.855469 C 27.78125 19.933594 27.703125 20.074219 27.679688 20.167969 C 27.648438 20.300781 27.675781 20.363281 27.839844 20.503906 C 27.949219 20.597656 28.097656 20.671875 28.167969 20.671875 C 28.347656 20.671875 28.609375 20.386719 28.609375 20.191406 C 28.609375 19.984375 28.34375 19.710938 28.140625 19.710938 C 28.058594 19.710938 27.929688 19.777344 27.855469 19.855469 "/>
<path style=" stroke:none;fill-rule:evenodd;fill:rgb(68.627453%,16.862746%,19.215687%);fill-opacity:1;" d="M 5.984375 10.667969 C 5.492188 10.773438 4.542969 11.125 4.542969 11.199219 C 4.542969 11.226562 4.652344 11.265625 4.785156 11.289062 C 4.917969 11.3125 5.109375 11.371094 5.214844 11.417969 C 5.40625 11.5 5.40625 11.5 4.992188 11.550781 C 4.433594 11.617188 3.714844 11.863281 3.15625 12.179688 C 2.699219 12.433594 2.625 12.542969 2.898438 12.546875 C 2.984375 12.546875 2.863281 12.632812 2.585938 12.765625 C 2.148438 12.980469 1.714844 13.367188 1.535156 13.695312 C 1.460938 13.835938 1.464844 13.839844 1.707031 13.792969 L 1.953125 13.75 L 1.761719 13.898438 C 1.289062 14.269531 0.910156 14.902344 0.773438 15.539062 C 0.632812 16.210938 0.726562 17.734375 0.902344 17.628906 C 0.933594 17.609375 0.960938 17.5 0.960938 17.386719 C 0.960938 16.984375 1.425781 15.929688 1.796875 15.488281 L 1.933594 15.328125 L 1.800781 15.554688 C 1.730469 15.679688 1.578125 16.050781 1.464844 16.386719 C 1.296875 16.882812 1.257812 17.121094 1.230469 17.726562 C 1.214844 18.175781 1.230469 18.566406 1.273438 18.71875 C 1.371094 19.078125 1.933594 19.800781 2.441406 20.222656 C 2.878906 20.585938 3.425781 20.917969 3.484375 20.855469 C 3.503906 20.835938 3.480469 20.679688 3.429688 20.507812 C 3.160156 19.5625 3.097656 18.070312 3.285156 17.082031 C 3.402344 16.472656 3.6875 15.628906 3.945312 15.136719 C 4.128906 14.785156 4.539062 14.144531 4.582031 14.144531 C 4.597656 14.144531 4.511719 14.324219 4.390625 14.542969 C 3.917969 15.414062 3.585938 16.746094 3.585938 17.785156 C 3.585938 18.824219 3.914062 20.1875 4.359375 20.96875 C 4.578125 21.359375 4.636719 21.378906 5.65625 21.375 C 6.28125 21.371094 7.046875 21.261719 7.152344 21.15625 C 7.171875 21.140625 7.058594 20.972656 6.902344 20.785156 C 6.292969 20.066406 5.855469 19.253906 5.695312 18.558594 C 5.652344 18.367188 5.589844 18.125 5.558594 18.023438 C 5.527344 17.921875 5.503906 17.535156 5.503906 17.167969 C 5.503906 16.496094 5.660156 15.648438 5.867188 15.207031 C 5.9375 15.050781 5.949219 15.042969 5.921875 15.167969 C 5.441406 17.167969 6.214844 19.308594 7.808594 20.382812 C 8.207031 20.652344 8.226562 20.65625 8.40625 20.5625 C 8.839844 20.339844 10.046875 18.972656 9.953125 18.816406 C 9.9375 18.789062 9.832031 18.75 9.722656 18.726562 C 9.382812 18.660156 8.664062 18.132812 8.34375 17.714844 C 7.566406 16.707031 7.527344 15.273438 8.246094 14.210938 C 8.84375 13.320312 10.011719 12.773438 11.035156 12.902344 C 11.472656 12.957031 11.445312 12.953125 11.605469 13.023438 C 11.800781 13.109375 11.871094 12.964844 11.738281 12.742188 C 11.671875 12.632812 11.597656 12.542969 11.566406 12.542969 C 11.535156 12.542969 11.527344 12.519531 11.546875 12.488281 C 11.59375 12.414062 11.074219 11.988281 10.789062 11.871094 C 10.667969 11.820312 10.429688 11.761719 10.261719 11.742188 C 10.09375 11.71875 9.941406 11.679688 9.921875 11.652344 C 9.851562 11.546875 9.042969 11.085938 8.671875 10.945312 C 8.011719 10.695312 7.617188 10.628906 6.847656 10.632812 C 6.441406 10.636719 6.054688 10.652344 5.984375 10.667969 M 9.039062 11.945312 C 9.09375 12.003906 9.1875 12.03125 9.242188 12.011719 C 9.417969 11.945312 9.351562 11.839844 9.136719 11.839844 C 8.949219 11.839844 8.941406 11.847656 9.039062 11.945312 M 21.921875 13.226562 C 21.324219 13.324219 20.773438 13.601562 20.355469 14.019531 L 20.03125 14.34375 L 20.03125 13.246094 L 17.96875 13.261719 L 15.902344 13.28125 L 15.839844 18.140625 L 15.078125 15.96875 C 14.660156 14.769531 14.261719 13.667969 14.199219 13.519531 L 14.078125 13.246094 L 12.992188 13.246094 C 12.394531 13.246094 11.902344 13.257812 11.902344 13.269531 C 11.902344 13.277344 11.730469 13.789062 11.519531 14.402344 C 11.308594 15.019531 11.003906 15.894531 10.847656 16.351562 C 10.691406 16.808594 10.445312 17.515625 10.304688 17.917969 C 10.164062 18.320312 10.074219 18.675781 10.101562 18.703125 C 10.128906 18.730469 10.570312 18.746094 11.078125 18.738281 L 12 18.71875 L 12.039062 18.046875 L 14.015625 18.046875 L 14.015625 18.320312 C 14.015625 18.46875 14.042969 18.628906 14.070312 18.671875 C 14.109375 18.734375 14.75 18.75 17.058594 18.738281 L 20 18.71875 L 20.039062 17.71875 L 20.320312 18.035156 C 21.300781 19.128906 23.855469 19.15625 24.988281 18.089844 C 25.324219 17.773438 25.59375 17.320312 25.601562 17.054688 C 25.605469 16.972656 25.664062 17.039062 25.773438 17.246094 C 26.089844 17.859375 26.609375 18.328125 27.285156 18.609375 C 27.617188 18.746094 27.785156 18.773438 28.351562 18.777344 C 28.84375 18.78125 29.105469 18.753906 29.332031 18.671875 C 29.675781 18.546875 30.03125 18.375 30.078125 18.308594 C 30.097656 18.285156 30.21875 18.183594 30.351562 18.085938 C 30.652344 17.859375 31.035156 17.285156 31.183594 16.839844 C 31.398438 16.179688 31.304688 15.226562 30.964844 14.664062 C 30.136719 13.292969 28.445312 12.808594 27.019531 13.53125 C 26.53125 13.777344 25.992188 14.308594 25.785156 14.746094 C 25.640625 15.050781 25.597656 15.101562 25.5625 15.003906 C 25.273438 14.171875 24.746094 13.660156 23.863281 13.34375 C 23.582031 13.246094 22.289062 13.164062 21.921875 13.226562 M 17.34375 14.878906 L 17.34375 15.292969 L 18.382812 15.308594 L 19.425781 15.328125 L 19.425781 16.671875 L 18.414062 16.691406 L 17.40625 16.707031 L 17.40625 17.535156 L 19.957031 17.535156 L 19.828125 17.167969 C 19.71875 16.855469 19.703125 16.679688 19.722656 15.9375 C 19.742188 15.21875 19.769531 15.019531 19.886719 14.769531 L 20.023438 14.464844 L 17.34375 14.464844 L 17.34375 14.878906 M 22.089844 14.609375 C 21.90625 14.703125 21.753906 14.847656 21.644531 15.039062 C 21.492188 15.296875 21.476562 15.386719 21.480469 15.914062 C 21.488281 16.765625 21.6875 17.148438 22.222656 17.375 C 22.53125 17.503906 22.757812 17.496094 23.078125 17.347656 C 23.289062 17.253906 23.375 17.160156 23.496094 16.90625 L 23.648438 16.582031 L 24.597656 16.578125 C 25.4375 16.578125 25.546875 16.5625 25.511719 16.476562 C 25.488281 16.417969 25.472656 16.203125 25.472656 15.996094 L 25.472656 15.617188 L 24.542969 15.617188 C 23.851562 15.617188 23.605469 15.59375 23.589844 15.535156 C 23.574219 15.492188 23.527344 15.316406 23.484375 15.144531 C 23.328125 14.539062 22.699219 14.296875 22.089844 14.609375 M 28.257812 14.699219 C 28.1875 14.714844 28.066406 14.738281 27.988281 14.753906 C 27.914062 14.769531 27.761719 14.859375 27.648438 14.953125 C 27.089844 15.421875 27.039062 16.34375 27.535156 16.964844 C 27.6875 17.15625 28.058594 17.304688 28.382812 17.304688 C 29.050781 17.304688 29.507812 16.871094 29.554688 16.1875 C 29.570312 15.980469 29.5625 15.707031 29.539062 15.582031 C 29.484375 15.277344 29.050781 14.804688 28.78125 14.75 C 28.667969 14.730469 28.53125 14.703125 28.480469 14.691406 C 28.425781 14.679688 28.328125 14.683594 28.257812 14.699219 M 12.660156 15.792969 C 12.566406 16.171875 12.472656 16.53125 12.445312 16.59375 C 12.40625 16.695312 12.457031 16.703125 13.015625 16.703125 C 13.355469 16.703125 13.632812 16.695312 13.632812 16.683594 C 13.632812 16.675781 13.558594 16.324219 13.472656 15.910156 C 13.382812 15.496094 13.3125 15.144531 13.3125 15.128906 C 13.3125 15.117188 13.203125 15.105469 13.070312 15.105469 L 12.828125 15.105469 L 12.660156 15.792969 M 18.007812 20.191406 C 18.007812 20.507812 18.015625 20.644531 18.03125 20.496094 C 18.042969 20.347656 18.042969 20.089844 18.03125 19.921875 C 18.019531 19.753906 18.007812 19.875 18.007812 20.191406 M 24.277344 20.191406 C 24.277344 20.507812 24.289062 20.644531 24.304688 20.496094 C 24.316406 20.347656 24.316406 20.089844 24.304688 19.921875 C 24.289062 19.753906 24.277344 19.875 24.277344 20.191406 M 20.824219 20.222656 C 20.824219 20.523438 20.832031 20.644531 20.847656 20.496094 C 20.859375 20.347656 20.859375 20.101562 20.847656 19.953125 C 20.832031 19.800781 20.824219 19.925781 20.824219 20.222656 M 25.105469 19.96875 C 25.105469 20.125 25.117188 20.191406 25.132812 20.113281 C 25.148438 20.03125 25.148438 19.902344 25.132812 19.824219 C 25.117188 19.746094 25.105469 19.808594 25.105469 19.96875 M 10.320312 19.96875 C 10.320312 20.089844 10.332031 20.140625 10.347656 20.078125 C 10.363281 20.019531 10.363281 19.917969 10.347656 19.855469 C 10.332031 19.792969 10.320312 19.84375 10.320312 19.96875 M 17.171875 20.289062 C 17.171875 20.550781 17.183594 20.660156 17.199219 20.527344 C 17.210938 20.394531 17.210938 20.179688 17.199219 20.046875 C 17.183594 19.917969 17.171875 20.023438 17.171875 20.289062 M 26.582031 20.320312 C 26.582031 20.601562 26.59375 20.707031 26.605469 20.558594 C 26.621094 20.40625 26.621094 20.175781 26.605469 20.046875 C 26.59375 19.914062 26.582031 20.039062 26.582031 20.320312 M 13.90625 20.222656 C 13.90625 20.382812 13.917969 20.445312 13.933594 20.367188 C 13.949219 20.289062 13.949219 20.160156 13.933594 20.078125 C 13.917969 20 13.90625 20.066406 13.90625 20.222656 M 14.734375 20.480469 C 14.734375 20.601562 14.746094 20.652344 14.765625 20.59375 C 14.78125 20.53125 14.78125 20.429688 14.765625 20.367188 C 14.746094 20.304688 14.734375 20.355469 14.734375 20.480469 M 10.320312 20.574219 C 10.320312 20.71875 10.332031 20.765625 10.347656 20.6875 C 10.363281 20.609375 10.363281 20.492188 10.347656 20.429688 C 10.332031 20.371094 10.320312 20.433594 10.320312 20.574219 M 14.910156 20.800781 L 14.558594 20.84375 L 14.890625 20.855469 C 15.074219 20.859375 15.242188 20.835938 15.265625 20.800781 C 15.285156 20.765625 15.292969 20.742188 15.285156 20.746094 C 15.273438 20.753906 15.105469 20.777344 14.910156 20.800781 "/>
</g>
</svg>
